<mxfile host="app.diagrams.net" agent="Mozilla/5.0 (X11; Linux x86_64) AppleWebKit/537.36 (KHTML, like Gecko) Chrome/139.0.0.0 Safari/537.36" version="28.0.7">
  <diagram name="Página-1" id="yGnkef2Lowc70Qk3FwgF">
    <mxGraphModel dx="674" dy="951" grid="1" gridSize="10" guides="1" tooltips="1" connect="1" arrows="1" fold="1" page="1" pageScale="1" pageWidth="827" pageHeight="1169" math="0" shadow="0">
      <root>
        <mxCell id="0" />
        <mxCell id="1" parent="0" />
        <mxCell id="NXXub8TDZK0iSwP5Ger0-5" style="edgeStyle=none;curved=1;rounded=0;orthogonalLoop=1;jettySize=auto;html=1;fontSize=12;startSize=8;endSize=8;" edge="1" parent="1" source="NXXub8TDZK0iSwP5Ger0-4">
          <mxGeometry relative="1" as="geometry">
            <mxPoint x="450" y="160" as="targetPoint" />
          </mxGeometry>
        </mxCell>
        <mxCell id="NXXub8TDZK0iSwP5Ger0-4" value="INÍCIO" style="strokeWidth=2;html=1;shape=mxgraph.flowchart.start_1;whiteSpace=wrap;" vertex="1" parent="1">
          <mxGeometry x="370" y="20" width="160" height="90" as="geometry" />
        </mxCell>
        <mxCell id="NXXub8TDZK0iSwP5Ger0-9" style="edgeStyle=none;curved=1;rounded=0;orthogonalLoop=1;jettySize=auto;html=1;fontSize=12;startSize=8;endSize=8;" edge="1" parent="1">
          <mxGeometry relative="1" as="geometry">
            <mxPoint x="450" y="280" as="targetPoint" />
            <mxPoint x="450" y="220" as="sourcePoint" />
          </mxGeometry>
        </mxCell>
        <mxCell id="NXXub8TDZK0iSwP5Ger0-13" style="edgeStyle=none;curved=1;rounded=0;orthogonalLoop=1;jettySize=auto;html=1;fontSize=12;startSize=8;endSize=8;" edge="1" parent="1" source="NXXub8TDZK0iSwP5Ger0-10">
          <mxGeometry relative="1" as="geometry">
            <mxPoint x="450" y="400" as="targetPoint" />
          </mxGeometry>
        </mxCell>
        <mxCell id="NXXub8TDZK0iSwP5Ger0-10" value="&lt;div&gt;&lt;br&gt;&lt;/div&gt;&lt;div&gt;&lt;br&gt;&lt;/div&gt;QTD inicial&lt;div&gt;&amp;nbsp;(x)&lt;/div&gt;" style="shape=manualInput;whiteSpace=wrap;html=1;" vertex="1" parent="1">
          <mxGeometry x="410" y="270" width="80" height="80" as="geometry" />
        </mxCell>
        <mxCell id="NXXub8TDZK0iSwP5Ger0-12" value="&amp;nbsp; QTD de&amp;nbsp;&lt;div&gt;peças&lt;/div&gt;" style="strokeWidth=2;html=1;shape=mxgraph.flowchart.display;whiteSpace=wrap;" vertex="1" parent="1">
          <mxGeometry x="400" y="160" width="100" height="60" as="geometry" />
        </mxCell>
        <mxCell id="NXXub8TDZK0iSwP5Ger0-15" style="edgeStyle=none;curved=1;rounded=0;orthogonalLoop=1;jettySize=auto;html=1;exitX=0;exitY=0.5;exitDx=0;exitDy=0;exitPerimeter=0;fontSize=12;startSize=8;endSize=8;" edge="1" parent="1" source="NXXub8TDZK0iSwP5Ger0-14">
          <mxGeometry relative="1" as="geometry">
            <mxPoint x="240" y="450.3333333333335" as="targetPoint" />
          </mxGeometry>
        </mxCell>
        <mxCell id="NXXub8TDZK0iSwP5Ger0-20" style="edgeStyle=none;curved=1;rounded=0;orthogonalLoop=1;jettySize=auto;html=1;fontSize=12;startSize=8;endSize=8;" edge="1" parent="1" source="NXXub8TDZK0iSwP5Ger0-14">
          <mxGeometry relative="1" as="geometry">
            <mxPoint x="640" y="450" as="targetPoint" />
          </mxGeometry>
        </mxCell>
        <mxCell id="NXXub8TDZK0iSwP5Ger0-14" value="Deseja subtrair/somar peças?" style="strokeWidth=2;html=1;shape=mxgraph.flowchart.decision;whiteSpace=wrap;" vertex="1" parent="1">
          <mxGeometry x="400" y="400" width="100" height="100" as="geometry" />
        </mxCell>
        <mxCell id="NXXub8TDZK0iSwP5Ger0-44" style="edgeStyle=none;curved=1;rounded=0;orthogonalLoop=1;jettySize=auto;html=1;entryX=0.5;entryY=0;entryDx=0;entryDy=0;fontSize=12;startSize=8;endSize=8;" edge="1" parent="1" source="NXXub8TDZK0iSwP5Ger0-16" target="NXXub8TDZK0iSwP5Ger0-18">
          <mxGeometry relative="1" as="geometry" />
        </mxCell>
        <mxCell id="NXXub8TDZK0iSwP5Ger0-16" value="&amp;nbsp; &amp;nbsp; Informe a qtd a subtrair" style="strokeWidth=2;html=1;shape=mxgraph.flowchart.display;whiteSpace=wrap;" vertex="1" parent="1">
          <mxGeometry x="140" y="420" width="100" height="60" as="geometry" />
        </mxCell>
        <mxCell id="NXXub8TDZK0iSwP5Ger0-18" value="x - y" style="rounded=1;whiteSpace=wrap;html=1;" vertex="1" parent="1">
          <mxGeometry x="130" y="555" width="120" height="60" as="geometry" />
        </mxCell>
        <mxCell id="NXXub8TDZK0iSwP5Ger0-45" style="edgeStyle=none;curved=1;rounded=0;orthogonalLoop=1;jettySize=auto;html=1;entryX=0.5;entryY=0;entryDx=0;entryDy=0;fontSize=12;startSize=8;endSize=8;" edge="1" parent="1" source="NXXub8TDZK0iSwP5Ger0-19" target="NXXub8TDZK0iSwP5Ger0-23">
          <mxGeometry relative="1" as="geometry" />
        </mxCell>
        <mxCell id="NXXub8TDZK0iSwP5Ger0-19" value="&amp;nbsp; &amp;nbsp;Informe a qtd a somar" style="strokeWidth=2;html=1;shape=mxgraph.flowchart.display;whiteSpace=wrap;" vertex="1" parent="1">
          <mxGeometry x="640" y="420" width="100" height="60" as="geometry" />
        </mxCell>
        <mxCell id="NXXub8TDZK0iSwP5Ger0-23" value="x + y" style="rounded=1;whiteSpace=wrap;html=1;" vertex="1" parent="1">
          <mxGeometry x="630" y="554" width="120" height="60" as="geometry" />
        </mxCell>
        <mxCell id="NXXub8TDZK0iSwP5Ger0-43" style="edgeStyle=none;curved=1;rounded=0;orthogonalLoop=1;jettySize=auto;html=1;fontSize=12;startSize=8;endSize=8;" edge="1" parent="1" source="NXXub8TDZK0iSwP5Ger0-24" target="NXXub8TDZK0iSwP5Ger0-42">
          <mxGeometry relative="1" as="geometry" />
        </mxCell>
        <mxCell id="NXXub8TDZK0iSwP5Ger0-24" value="QTD Final" style="strokeWidth=2;html=1;shape=mxgraph.flowchart.display;whiteSpace=wrap;" vertex="1" parent="1">
          <mxGeometry x="400" y="660" width="100" height="60" as="geometry" />
        </mxCell>
        <mxCell id="NXXub8TDZK0iSwP5Ger0-36" style="edgeStyle=orthogonalEdgeStyle;rounded=0;orthogonalLoop=1;jettySize=auto;html=1;entryX=0;entryY=0.5;entryDx=0;entryDy=0;entryPerimeter=0;fontSize=12;startSize=8;endSize=8;exitX=0.5;exitY=1;exitDx=0;exitDy=0;" edge="1" parent="1" source="NXXub8TDZK0iSwP5Ger0-18" target="NXXub8TDZK0iSwP5Ger0-24">
          <mxGeometry relative="1" as="geometry" />
        </mxCell>
        <mxCell id="NXXub8TDZK0iSwP5Ger0-42" value="FIM" style="strokeWidth=2;html=1;shape=mxgraph.flowchart.start_1;whiteSpace=wrap;" vertex="1" parent="1">
          <mxGeometry x="400" y="770" width="100" height="60" as="geometry" />
        </mxCell>
        <mxCell id="NXXub8TDZK0iSwP5Ger0-46" style="edgeStyle=orthogonalEdgeStyle;rounded=0;orthogonalLoop=1;jettySize=auto;html=1;entryX=1;entryY=0.5;entryDx=0;entryDy=0;entryPerimeter=0;fontSize=12;startSize=8;endSize=8;exitX=0.5;exitY=1;exitDx=0;exitDy=0;" edge="1" parent="1" source="NXXub8TDZK0iSwP5Ger0-23" target="NXXub8TDZK0iSwP5Ger0-24">
          <mxGeometry relative="1" as="geometry" />
        </mxCell>
      </root>
    </mxGraphModel>
  </diagram>
</mxfile>
